<svg width="32" height="32" viewBox="0 0 32 32" fill="none" xmlns="http://www.w3.org/2000/svg">
  <rect width="32" height="32" rx="8" fill="url(#paint0_linear)"/>
  <path d="M12 21L21 16L12 11V21Z" fill="white"/>
  <path d="M22 10.5C22 11.3284 21.3284 12 20.5 12C19.6716 12 19 11.3284 19 10.5C19 9.67157 19.6716 9 20.5 9C21.3284 9 22 9.67157 22 10.5Z" fill="#6366F1"/>
  <path d="M24 13.5C24 14.3284 23.3284 15 22.5 15C21.6716 15 21 14.3284 21 13.5C21 12.6716 21.6716 12 22.5 12C23.3284 12 24 12.6716 24 13.5Z" fill="#4F46E5"/>
  <defs>
    <linearGradient id="paint0_linear" x1="0" y1="0" x2="32" y2="32" gradientUnits="userSpaceOnUse">
      <stop stop-color="#4F46E5"/>
      <stop offset="1" stop-color="#2563EB"/>
    </linearGradient>
  </defs>
</svg>
